<?xml version="1.0" encoding="utf-8"?>
<!-- Generator: Adobe Illustrator 26.5.0, SVG Export Plug-In . SVG Version: 6.00 Build 0)  -->
<svg version="1.1" id="svgrootid" xmlns="http://www.w3.org/2000/svg" xmlns:xlink="http://www.w3.org/1999/xlink" x="0px" y="0px" viewBox="0 0 150.2 92.3" style="enable-background:new 0 0 150.2 92.3;" xml:space="preserve" width="150.2" height="92.3" preserveAspectRatio="none">
<style type="text/css">
	.st0{fill:#B1B1B0;stroke:#546E7A;stroke-width:4;stroke-linejoin:bevel;stroke-miterlimit:10;}
	.st1{display:none;fill:#2E7D32;stroke:#546E7A;stroke-width:4;stroke-linejoin:bevel;stroke-miterlimit:10;}
	.st2{fill:#B1B1B0;}
	.st3{fill:none;stroke:#546E7A;stroke-width:4;stroke-linejoin:bevel;stroke-miterlimit:10;}
	.st4{display:none;}
	.st5{display:inline;fill:#2E7D32;}
	.st6{display:inline;fill:none;stroke:#546E7A;stroke-width:4;stroke-linejoin:bevel;stroke-miterlimit:10;}
</style>
<g id="rotate">
	<g id="Body">
		<polyline id="pos6" class="st0" points="124.9,12 124.9,92.3 149.9,92.3 149.9,12 		" />
		<polyline id="pos5" class="st0" points="99.9,12 99.9,92.3 124.9,92.3 124.9,12 		" />
		<polyline id="pos4" class="st0" points="74.9,12 74.9,92.3 99.9,92.3 99.9,12 		" />
		<polyline id="pos3" class="st0" points="49.9,12 49.9,92.3 74.9,92.3 74.9,12 		" />
		<polyline id="pos2" class="st0" points="24.9,12 24.9,92.3 49.9,92.3 49.9,12 		" />
		<polyline id="pos1" class="st0" points="-0.1,12 -0.1,92.3 24.9,92.3 24.9,12 		" />
		<polyline id="pos12off" class="st1" points="200.4,12 200.4,92.3 225.4,92.3 225.4,12 		" />
		<polyline id="pos11off" class="st1" points="175.4,12 175.4,92.3 200.4,92.3 200.4,12 		" />
		<polyline id="pos10off" class="st1" points="150.4,12 150.4,92.3 175.4,92.3 175.4,12 		" />
		<polyline id="pos9off" class="st1" points="125.4,12 125.4,92.3 150.4,92.3 150.4,12 		" />
		<polyline id="pos8off" class="st1" points="100.4,12 100.4,92.3 125.4,92.3 125.4,12 		" />
		<polyline id="pos7off" class="st1" points="75.4,12 75.4,92.3 100.4,92.3 100.4,12 		" />
		<polyline id="pos6off" class="st1" points="49.9,12 49.9,92.3 74.9,92.3 74.9,12 		" />
		<polyline id="pos5off" class="st1" points="24.9,12 24.9,92.3 49.9,92.3 49.9,12 		" />
		<polyline id="pos4off" class="st1" points="-0.1,12 -0.1,92.3 24.9,92.3 24.9,12 		" />
		<polyline id="pos3off" class="st1" points="-25.1,12 -25.1,92.3 -0.1,92.3 -0.1,12 		" />
		<polyline id="pos2off" class="st1" points="-50.1,12 -50.1,92.3 -25.1,92.3 -25.1,12 		" />
		<polyline id="pos1off" class="st1" points="-75.1,12 -75.1,92.3 -50.1,92.3 -50.1,12 		" />
	</g>
	<g id="Head">
		<g id="Head_Stopped">
			<rect id="Top" x="0.1" class="st2" width="150" height="12" />
			<line id="frame_x5F_left" class="st3" x1="0" y1="0" x2="62.5" y2="0" />
			<line class="st3" x1="149.9" y1="12.6" x2="149.9" y2="0.6" />
			<polyline class="st3" points="-0.1,0 -0.1,12 -0.1,1.6 			" />
			<path id="frame_x5F_right_00000153682899378388794870000002787440877314234270_" class="st3" d="M225.4,0" />
			<path id="frame_x5F_right_00000017518289284843023010000010939889715651101852_" class="st3" d="M162.9,0" />
		</g>
		<g id="Head_Started" class="st4">
			<rect id="Top_00000022560921295860443970000012064510958579741313_" x="-75.1" class="st5" width="300.5" height="12" />
			
				<line id="frame_x5F_left_00000166660494087320403620000006299299122611525795_" class="st6" x1="-75.1" y1="0" x2="62.4" y2="0" />
			<line class="st6" x1="225.4" y1="12" x2="225.4" y2="0" />
			<polyline class="st6" points="-75.1,0 -75.1,12 -75.1,1.6 			" />
			
				<line id="frame_x5F_right_00000076577913984235365370000006063074442732012974_" class="st6" x1="87.9" y1="0" x2="225.4" y2="0" />
		</g>
	</g>
</g>
<line id="frame_x5F_left_00000161614228676629415130000017113507355266204307_" class="st3" x1="87.8" y1="0" x2="150.2" y2="0" />
</svg>