<svg width="19" height="19" viewBox="0 0 19 19" fill="none" xmlns="http://www.w3.org/2000/svg">
<rect width="18.871" height="18.871" fill="white"/>
<path d="M13.4266 16.0334H3.71524V6.14395H9.38021V4.52539H3.71524C2.82503 4.52539 2.09668 5.25374 2.09668 6.14395V15.8553C2.09668 16.7455 2.82503 17.4739 3.71524 17.4739H13.4266C14.3168 17.4739 15.0452 16.7455 15.0452 15.8553V10.1904H13.4266V16.0334Z" fill="black"/>
<path d="M15.0452 2.09766H13.4266V4.5255H10.9988C11.0069 4.53359 10.9988 6.14406 10.9988 6.14406H13.4266V8.56381C13.4347 8.57191 15.0452 8.56381 15.0452 8.56381V6.14406H17.473V4.5255H15.0452V2.09766Z" fill="black"/>
<path d="M11.8082 7.76172H5.33398V9.38028H11.8082V7.76172Z" fill="black"/>
<path d="M5.33398 10.1914V11.81H11.8082V10.1914H9.38039H5.33398Z" fill="black"/>
<path d="M11.8082 12.6191H5.33398V14.2377H11.8082V12.6191Z" fill="black"/>
</svg>
